<?xml version="1.0" standalone="no"?>
<!DOCTYPE svg PUBLIC "-//W3C//DTD SVG 20010904//EN"
 "http://www.w3.org/TR/2001/REC-SVG-20010904/DTD/svg10.dtd">
<svg version="1.0" xmlns="http://www.w3.org/2000/svg"
 width="512.000000pt" height="512.000000pt" viewBox="0 0 512.000000 512.000000"
 preserveAspectRatio="xMidYMid meet">
<metadata>
Created by potrace 1.16, written by Peter Selinger 2001-2019
</metadata>
<g transform="translate(0.000000,512.000000) scale(0.100000,-0.100000)"
fill="#000000" stroke="none">
<path d="M2090 4414 c-58 -18 -132 -73 -171 -127 l-30 -42 298 -6 c229 -4 308
-9 343 -20 249 -85 412 -284 439 -536 5 -49 13 -436 17 -862 3 -426 9 -785 13
-797 5 -18 25 18 92 169 47 106 195 433 328 728 166 369 245 556 253 598 13
71 1 157 -32 222 -29 56 -101 122 -171 156 -132 65 -1096 496 -1148 514 -64
23 -166 24 -231 3z m1328 -734 c60 -37 62 -107 5 -132 -16 -7 -29 -13 -31 -14
-1 0 4 -13 12 -28 17 -34 11 -61 -22 -86 -30 -24 -49 -25 -101 -4 -45 18 -71
51 -71 89 0 24 1 25 26 12 14 -7 31 -24 37 -38 23 -45 87 -33 87 17 0 16 -8
28 -25 36 -14 6 -25 20 -25 31 0 16 5 18 34 13 24 -5 39 -2 50 9 32 33 13 67
-35 64 -19 -1 -45 3 -58 8 -22 9 -22 10 -6 26 22 23 83 21 123 -3z"/>
<path d="M3327 4398 c-53 -7 -157 -52 -157 -68 0 -3 98 -50 218 -104 119 -54
245 -116 280 -138 207 -134 315 -396 263 -643 -8 -37 -146 -356 -362 -834
-192 -426 -347 -776 -345 -778 3 -3 987 839 1173 1004 101 90 137 163 137 284
1 134 -10 151 -424 632 -499 579 -498 578 -563 610 -65 34 -140 45 -220 35z
m1014 -1240 c10 -13 18 -26 19 -29 0 -3 -29 -30 -66 -59 -45 -38 -64 -60 -61
-72 6 -22 -21 -47 -32 -30 -6 9 -14 7 -33 -7 -25 -20 -25 -20 -43 -1 -18 20
-18 21 3 43 l22 23 -35 41 c-40 48 -38 70 8 78 71 12 192 33 195 34 2 1 12 -9
23 -21z"/>
<path d="M1685 3969 c-302 -4 -574 -10 -603 -12 -147 -15 -287 -149 -300 -289
l-5 -49 94 45 c52 24 150 71 219 104 69 33 146 67 173 76 215 73 455 17 618
-144 36 -36 78 -85 93 -109 15 -24 187 -375 382 -780 196 -405 360 -740 366
-746 7 -7 8 60 4 220 -3 127 -9 484 -12 795 -3 311 -10 587 -15 614 -19 101
-89 195 -179 241 -56 29 -144 46 -224 43 -34 -1 -308 -5 -611 -9z m769 -240
c44 -34 37 -83 -24 -160 l-49 -64 59 -3 c50 -2 60 -6 60 -21 0 -20 -50 -31
-146 -31 -50 0 -54 2 -54 23 0 13 12 34 26 48 78 73 118 167 78 183 -29 11
-44 6 -54 -19 -7 -18 -17 -25 -35 -25 -34 0 -33 33 1 65 35 32 100 34 138 4z"/>
<path d="M4367 3873 c-3 -5 62 -88 144 -184 204 -236 241 -292 273 -416 21
-79 21 -228 0 -307 -21 -83 -78 -188 -136 -251 -26 -29 -327 -293 -668 -586
-341 -294 -620 -537 -620 -541 0 -4 6 -5 13 -3 6 2 350 99 762 215 413 116
773 222 802 236 60 29 127 99 156 164 13 29 22 74 25 125 4 79 2 89 -167 690
-94 336 -179 630 -188 654 -24 62 -103 145 -171 177 -43 21 -77 29 -138 32
-45 2 -84 0 -87 -5z m532 -1522 c26 -79 26 -91 3 -91 -13 0 -23 15 -36 55 -17
53 -17 54 -49 48 -42 -8 -42 -7 -23 -47 10 -22 14 -45 10 -62 -12 -49 -96 -80
-145 -54 -44 24 -64 114 -33 158 20 30 30 28 43 -8 5 -16 6 -30 1 -30 -12 0
-22 -34 -14 -54 7 -18 55 -22 85 -6 25 14 24 44 -2 79 -12 16 -19 35 -17 43 5
14 139 50 149 39 4 -3 16 -35 28 -70z"/>
<path d="M1375 3600 c-47 -11 -76 -25 -665 -308 -510 -245 -559 -271 -608
-319 -71 -70 -95 -126 -100 -233 -3 -67 0 -95 15 -135 11 -27 206 -436 433
-909 454 -942 442 -920 558 -974 72 -33 188 -42 256 -19 24 8 304 140 621 293
411 198 589 289 620 316 91 81 133 222 102 343 -18 70 -823 1748 -871 1815
-76 107 -231 163 -361 130z m185 -350 l99 -114 -27 -11 c-23 -10 -29 -8 -47
13 l-20 23 -49 -20 c-45 -20 -48 -23 -44 -52 4 -26 1 -32 -20 -40 -14 -5 -26
-8 -28 -6 -2 1 -8 54 -14 117 -5 63 -12 131 -15 151 -4 31 -1 37 23 46 15 6
31 10 35 9 5 -1 53 -53 107 -116z m-120 -814 c113 -54 208 -100 212 -104 8 -8
-114 -587 -125 -599 -8 -7 -547 246 -547 257 0 10 119 560 126 582 6 19 -6 24
334 -136z"/>
</g>
</svg>
